<?xml version="1.0" standalone="no"?>
<!DOCTYPE svg PUBLIC "-//W3C//DTD SVG 1.1//EN" "http://www.w3.org/Graphics/SVG/1.1/DTD/svg11.dtd" >
<svg xmlns="http://www.w3.org/2000/svg" xmlns:xlink="http://www.w3.org/1999/xlink" version="1.1">
<metadata>
Created by FontForge 20161013 at Sun Jan 14 16:35:32 2001
 By ,,,
Copyright 2001.Developed by Mohammad Mousavi.
</metadata>
<defs>
<font id="CODE128C" horiz-adv-x="550" >
  <font-face 
    font-family="CODE128C"
    font-weight="400"
    font-stretch="normal"
    units-per-em="1000"
    panose-1="2 0 0 0 0 0 0 0 0 0"
    ascent="800"
    descent="-200"
    x-height="1498"
    cap-height="1498"
    bbox="2 2 648 1498"
    underline-thickness="0"
    underline-position="0"
    unicode-range="U+0020-00CE"
  />
<missing-glyph horiz-adv-x="500" 
 />
    <glyph glyph-name=".notdef" horiz-adv-x="500" 
 />
    <glyph glyph-name=".null" horiz-adv-x="0" 
 />
    <glyph glyph-name="nonmarkingreturn" horiz-adv-x="500" 
 />
    <glyph glyph-name="visiblespace" unicode=" " 
d="M352 2v1496h96v-1496h-96zM152 2v1496h96v-1496h-96zM2 2v1496h96v-1496h-96z" />
    <glyph glyph-name="visiblespace" unicode="&#xa0;" 
d="M352 2v1496h96v-1496h-96zM152 2v1496h96v-1496h-96zM2 2v1496h96v-1496h-96z" />
    <glyph glyph-name="exclam" unicode="!" 
d="M352 2v1496h96v-1496h-96zM202 2v1496h96v-1496h-96zM2 2v1496h96v-1496h-96z" />
    <glyph glyph-name="quotedbl" unicode="&#x22;" 
d="M402 2v1496h96v-1496h-96zM202 2v1496h96v-1496h-96zM2 2v1496h96v-1496h-96z" />
    <glyph glyph-name="numbersign" unicode="#" 
d="M302 2v1496h96v-1496h-96zM152 2v1496h46v-1496h-46zM2 2v1496h46v-1496h-46z" />
    <glyph glyph-name="dollar" unicode="$" 
d="M352 2v1496h96v-1496h-96zM152 2v1496h46v-1496h-46zM2 2v1496h46v-1496h-46z" />
    <glyph glyph-name="percent" unicode="%" 
d="M352 2v1496h96v-1496h-96zM202 2v1496h46v-1496h-46zM2 2v1496h46v-1496h-46z" />
    <glyph glyph-name="ampersand" unicode="&#x26;" 
d="M352 2v1496h46v-1496h-46zM152 2v1496h96v-1496h-96zM2 2v1496h46v-1496h-46z" />
    <glyph glyph-name="quotesingle" unicode="'" 
d="M402 2v1496h46v-1496h-46zM152 2v1496h96v-1496h-96zM2 2v1496h46v-1496h-46z" />
    <glyph glyph-name="parenleft" unicode="(" 
d="M402 2v1496h46v-1496h-46zM202 2v1496h96v-1496h-96zM2 2v1496h46v-1496h-46z" />
    <glyph glyph-name="parenright" unicode=")" 
d="M352 2v1496h46v-1496h-46zM202 2v1496h46v-1496h-46zM2 2v1496h96v-1496h-96z" />
    <glyph glyph-name="asterisk" unicode="*" 
d="M448 2h-46v1496h46v-1496zM248 2h-46v1496h46v-1496zM98 2h-96v1496h96v-1496z" />
    <glyph glyph-name="plus" unicode="+" 
d="M402 2v1496h46v-1496h-46zM252 2v1496h46v-1496h-46zM2 2v1496h96v-1496h-96z" />
    <glyph glyph-name="comma" unicode="," 
d="M302 2v1496h146v-1496h-146zM102 2v1496h96v-1496h-96zM2 2v1496h46v-1496h-46z" />
    <glyph glyph-name="hyphen" unicode="-" 
d="M302 2v1496h146v-1496h-146zM152 2v1496h96v-1496h-96zM2 2v1496h46v-1496h-46z" />
    <glyph glyph-name="period" unicode="." 
d="M352 2v1496h146v-1496h-146zM152 2v1496h96v-1496h-96zM2 2v1496h46v-1496h-46z" />
    <glyph glyph-name="slash" unicode="/" 
d="M352 2v1496h96v-1496h-96zM102 2v1496h146v-1496h-146zM2 2v1496h46v-1496h-46z" />
    <glyph glyph-name="zero" unicode="0" 
d="M352 2v1496h96v-1496h-96zM152 2v1496h146v-1496h-146zM2 2v1496h46v-1496h-46z" />
    <glyph glyph-name="one" unicode="1" 
d="M402 2v1496h96v-1496h-96zM152 2v1496h146v-1496h-146zM2 2v1496h46v-1496h-46z" />
    <glyph glyph-name="two" unicode="2" 
d="M452 2v1496h46v-1496h-46zM202 2v1496h146v-1496h-146zM2 2v1496h96v-1496h-96z" />
    <glyph glyph-name="three" unicode="3" 
d="M302 2v1496h146v-1496h-146zM202 2v1496h46v-1496h-46zM2 2v1496h96v-1496h-96z" />
    <glyph glyph-name="four" unicode="4" 
d="M352 2v1496h146v-1496h-146zM202 2v1496h46v-1496h-46zM2 2v1496h96v-1496h-96z" />
    <glyph glyph-name="five" unicode="5" 
d="M402 2v1496h46v-1496h-46zM152 2v1496h146v-1496h-146zM2 2v1496h96v-1496h-96z" />
    <glyph glyph-name="six" unicode="6" 
d="M402 2v1496h46v-1496h-46zM202 2v1496h146v-1496h-146zM2 2v1496h96v-1496h-96z" />
    <glyph glyph-name="seven" unicode="7" 
d="M352 2v1496h146v-1496h-146zM202 2v1496h96v-1496h-96zM2 2v1496h146v-1496h-146z" />
    <glyph glyph-name="eight" unicode="8" 
d="M352 2v1496h96v-1496h-96zM202 2v1496h46v-1496h-46zM2 2v1496h146v-1496h-146z" />
    <glyph glyph-name="nine" unicode="9" 
d="M352 2v1496h96v-1496h-96zM252 2v1496h46v-1496h-46zM2 2v1496h146v-1496h-146z" />
    <glyph glyph-name="colon" unicode=":" 
d="M402 2v1496h96v-1496h-96zM252 2v1496h46v-1496h-46zM2 2v1496h146v-1496h-146z" />
    <glyph glyph-name="semicolon" unicode=";" 
d="M402 2v1496h46v-1496h-46zM202 2v1496h96v-1496h-96zM2 2v1496h146v-1496h-146z" />
    <glyph glyph-name="less" unicode="&#x3c;" 
d="M402 2v1496h46v-1496h-46zM252 2v1496h96v-1496h-96zM2 2v1496h146v-1496h-146z" />
    <glyph glyph-name="equal" unicode="=" 
d="M452 2v1496h46v-1496h-46zM252 2v1496h96v-1496h-96zM2 2v1496h146v-1496h-146z" />
    <glyph glyph-name="greater" unicode="&#x3e;" 
d="M302 2v1496h96v-1496h-96zM152 2v1496h96v-1496h-96zM2 2v1496h96v-1496h-96z" />
    <glyph glyph-name="question" unicode="?" 
d="M402 2v1496h96v-1496h-96zM152 2v1496h96v-1496h-96zM2 2v1496h96v-1496h-96z" />
    <glyph glyph-name="at" unicode="@" 
d="M402 2v1496h96v-1496h-96zM252 2v1496h96v-1496h-96zM2 2v1496h96v-1496h-96z" />
    <glyph glyph-name="A" unicode="A" 
d="M302 2v1496h96v-1496h-96zM102 2v1496h46v-1496h-46zM2 2v1496h46v-1496h-46z" />
    <glyph glyph-name="B" unicode="B" 
d="M302 2v1496h96v-1496h-96zM202 2v1496h46v-1496h-46zM2 2v1496h46v-1496h-46z" />
    <glyph glyph-name="C" unicode="C" 
d="M402 2v1496h96v-1496h-96zM202 2v1496h46v-1496h-46zM2 2v1496h46v-1496h-46z" />
    <glyph glyph-name="D" unicode="D" 
d="M352 2v1496h46v-1496h-46zM102 2v1496h96v-1496h-96zM2 2v1496h46v-1496h-46z" />
    <glyph glyph-name="E" unicode="E" 
d="M352 2v1496h46v-1496h-46zM202 2v1496h96v-1496h-96zM2 2v1496h46v-1496h-46z" />
    <glyph glyph-name="F" unicode="F" 
d="M452 2v1496h46v-1496h-46zM202 2v1496h96v-1496h-96zM2 2v1496h46v-1496h-46z" />
    <glyph glyph-name="G" unicode="G" 
d="M352 2v1496h46v-1496h-46zM152 2v1496h46v-1496h-46zM2 2v1496h96v-1496h-96z" />
    <glyph glyph-name="H" unicode="H" 
d="M352 2v1496h46v-1496h-46zM252 2v1496h46v-1496h-46zM2 2v1496h96v-1496h-96z" />
    <glyph glyph-name="I" unicode="I" 
d="M452 2v1496h46v-1496h-46zM252 2v1496h46v-1496h-46zM2 2v1496h96v-1496h-96z" />
    <glyph glyph-name="J" unicode="J" 
d="M252 2v1496h146v-1496h-146zM102 2v1496h96v-1496h-96zM2 2v1496h46v-1496h-46z" />
    <glyph glyph-name="K" unicode="K" 
d="M352 2v1496h146v-1496h-146zM102 2v1496h96v-1496h-96zM2 2v1496h46v-1496h-46z" />
    <glyph glyph-name="L" unicode="L" 
d="M352 2v1496h146v-1496h-146zM202 2v1496h96v-1496h-96zM2 2v1496h46v-1496h-46z" />
    <glyph glyph-name="M" unicode="M" 
d="M302 2v1496h96v-1496h-96zM102 2v1496h146v-1496h-146zM2 2v1496h46v-1496h-46z" />
    <glyph glyph-name="N" unicode="N" 
d="M402 2v1496h96v-1496h-96zM102 2v1496h146v-1496h-146zM2 2v1496h46v-1496h-46z" />
    <glyph glyph-name="O" unicode="O" 
d="M402 2v1496h96v-1496h-96zM202 2v1496h146v-1496h-146zM2 2v1496h46v-1496h-46z" />
    <glyph glyph-name="P" unicode="P" 
d="M402 2v1496h96v-1496h-96zM202 2v1496h146v-1496h-146zM2 2v1496h146v-1496h-146z" />
    <glyph glyph-name="Q" unicode="Q" 
d="M352 2v1496h146v-1496h-146zM152 2v1496h46v-1496h-46zM2 2v1496h96v-1496h-96z" />
    <glyph glyph-name="R" unicode="R" 
d="M352 2v1496h146v-1496h-146zM252 2v1496h46v-1496h-46zM2 2v1496h96v-1496h-96z" />
    <glyph glyph-name="S" unicode="S" 
d="M352 2v1496h46v-1496h-46zM152 2v1496h146v-1496h-146zM2 2v1496h96v-1496h-96z" />
    <glyph glyph-name="T" unicode="T" 
d="M452 2v1496h46v-1496h-46zM152 2v1496h146v-1496h-146zM2 2v1496h96v-1496h-96z" />
    <glyph glyph-name="U" unicode="U" 
d="M352 2v1496h146v-1496h-146zM152 2v1496h146v-1496h-146zM2 2v1496h96v-1496h-96z" />
    <glyph glyph-name="V" unicode="V" 
d="M302 2v1496h96v-1496h-96zM202 2v1496h46v-1496h-46zM2 2v1496h146v-1496h-146z" />
    <glyph glyph-name="W" unicode="W" 
d="M402 2v1496h96v-1496h-96zM202 2v1496h46v-1496h-46zM2 2v1496h146v-1496h-146z" />
    <glyph glyph-name="X" unicode="X" 
d="M402 2v1496h96v-1496h-96zM302 2v1496h46v-1496h-46zM2 2v1496h146v-1496h-146z" />
    <glyph glyph-name="Y" unicode="Y" 
d="M352 2v1496h46v-1496h-46zM202 2v1496h96v-1496h-96zM2 2v1496h146v-1496h-146z" />
    <glyph glyph-name="Z" unicode="Z" 
d="M452 2v1496h46v-1496h-46zM202 2v1496h96v-1496h-96zM2 2v1496h146v-1496h-146z" />
    <glyph glyph-name="bracketleft" unicode="[" 
d="M452 2v1496h46v-1496h-46zM302 2v1496h96v-1496h-96zM2 2v1496h146v-1496h-146z" />
    <glyph glyph-name="backslash" unicode="\" 
d="M452 2v1496h46v-1496h-46zM202 2v1496h196v-1496h-196zM2 2v1496h146v-1496h-146z" />
    <glyph glyph-name="bracketright" unicode="]" 
d="M452 2v1496h46v-1496h-46zM202 2v1496h46v-1496h-46zM2 2v1496h96v-1496h-96z" />
    <glyph glyph-name="asciicircum" unicode="^" 
d="M452 2v1496h46v-1496h-46zM352 2v1496h46v-1496h-46zM2 2v1496h196v-1496h-196z" />
    <glyph glyph-name="underscore" unicode="_" 
d="M252 2v1496h96v-1496h-96zM102 2v1496h46v-1496h-46zM2 2v1496h46v-1496h-46z" />
    <glyph glyph-name="grave" unicode="`" 
d="M352 2v1496h96v-1496h-96zM102 2v1496h46v-1496h-46zM2 2v1496h46v-1496h-46z" />
    <glyph glyph-name="a" unicode="a" 
d="M252 2v1496h96v-1496h-96zM152 2v1496h46v-1496h-46zM2 2v1496h46v-1496h-46z" />
    <glyph glyph-name="b" unicode="b" 
d="M402 2v1496h96v-1496h-96zM152 2v1496h46v-1496h-46zM2 2v1496h46v-1496h-46z" />
    <glyph glyph-name="c" unicode="c" 
d="M352 2v1496h96v-1496h-96zM252 2v1496h46v-1496h-46zM2 2v1496h46v-1496h-46z" />
    <glyph glyph-name="d" unicode="d" 
d="M402 2v1496h96v-1496h-96zM252 2v1496h46v-1496h-46zM2 2v1496h46v-1496h-46z" />
    <glyph glyph-name="e" unicode="e" 
d="M302 2v1496h46v-1496h-46zM102 2v1496h96v-1496h-96zM2 2v1496h46v-1496h-46z" />
    <glyph glyph-name="f" unicode="f" 
d="M402 2v1496h46v-1496h-46zM102 2v1496h96v-1496h-96zM2 2v1496h46v-1496h-46z" />
    <glyph glyph-name="g" unicode="g" 
d="M302 2v1496h46v-1496h-46zM152 2v1496h96v-1496h-96zM2 2v1496h46v-1496h-46z" />
    <glyph glyph-name="h" unicode="h" 
d="M452 2v1496h46v-1496h-46zM152 2v1496h96v-1496h-96zM2 2v1496h46v-1496h-46z" />
    <glyph glyph-name="i" unicode="i" 
d="M402 2v1496h46v-1496h-46zM252 2v1496h96v-1496h-96zM2 2v1496h46v-1496h-46z" />
    <glyph glyph-name="j" unicode="j" 
d="M452 2v1496h46v-1496h-46zM252 2v1496h96v-1496h-96zM2 2v1496h46v-1496h-46z" />
    <glyph glyph-name="k" unicode="k" 
d="M452 2v1496h46v-1496h-46zM302 2v1496h46v-1496h-46zM2 2v1496h96v-1496h-96z" />
    <glyph glyph-name="l" unicode="l" 
d="M302 2v1496h46v-1496h-46zM202 2v1496h46v-1496h-46zM2 2v1496h96v-1496h-96z" />
    <glyph glyph-name="m" unicode="m" 
d="M452 2v1496h46v-1496h-46zM252 2v1496h146v-1496h-146zM2 2v1496h196v-1496h-196z" />
    <glyph glyph-name="n" unicode="n" 
d="M402 2v1496h46v-1496h-46zM302 2v1496h46v-1496h-46zM2 2v1496h96v-1496h-96z" />
    <glyph glyph-name="o" unicode="o" 
d="M452 2v1496h46v-1496h-46zM202 2v1496h196v-1496h-196zM2 2v1496h46v-1496h-46z" />
    <glyph glyph-name="p" unicode="p" 
d="M252 2v1496h196v-1496h-196zM102 2v1496h46v-1496h-46zM2 2v1496h46v-1496h-46z" />
    <glyph glyph-name="q" unicode="q" 
d="M252 2v1496h196v-1496h-196zM152 2v1496h46v-1496h-46zM2 2v1496h46v-1496h-46z" />
    <glyph glyph-name="r" unicode="r" 
d="M302 2v1496h196v-1496h-196zM152 2v1496h46v-1496h-46zM2 2v1496h46v-1496h-46z" />
    <glyph glyph-name="s" unicode="s" 
d="M402 2v1496h46v-1496h-46zM102 2v1496h196v-1496h-196zM2 2v1496h46v-1496h-46z" />
    <glyph glyph-name="t" unicode="t" 
d="M402 2v1496h46v-1496h-46zM152 2v1496h196v-1496h-196zM2 2v1496h46v-1496h-46z" />
    <glyph glyph-name="u" unicode="u" 
d="M452 2v1496h46v-1496h-46zM152 2v1496h196v-1496h-196zM2 2v1496h46v-1496h-46z" />
    <glyph glyph-name="v" unicode="v" 
d="M402 2v1496h46v-1496h-46zM252 2v1496h46v-1496h-46zM2 2v1496h196v-1496h-196z" />
    <glyph glyph-name="w" unicode="w" 
d="M402 2v1496h46v-1496h-46zM302 2v1496h46v-1496h-46zM2 2v1496h196v-1496h-196z" />
    <glyph glyph-name="x" unicode="x" 
d="M452 2v1496h46v-1496h-46zM302 2v1496h46v-1496h-46zM2 2v1496h196v-1496h-196z" />
    <glyph glyph-name="y" unicode="y" 
d="M302 2v1496h196v-1496h-196zM152 2v1496h96v-1496h-96zM2 2v1496h96v-1496h-96z" />
    <glyph glyph-name="z" unicode="z" 
d="M402 2v1496h96v-1496h-96zM152 2v1496h196v-1496h-196zM2 2v1496h96v-1496h-96z" />
    <glyph glyph-name="braceleft" unicode="{" 
d="M402 2v1496h96v-1496h-96zM252 2v1496h96v-1496h-96zM2 2v1496h196v-1496h-196z" />
    <glyph glyph-name="bar" unicode="|" 
d="M202 2v1496h196v-1496h-196zM102 2v1496h46v-1496h-46zM2 2v1496h46v-1496h-46z" />
    <glyph glyph-name="braceright" unicode="}" 
d="M302 2v1496h196v-1496h-196zM102 2v1496h46v-1496h-46zM2 2v1496h46v-1496h-46z" />
    <glyph glyph-name="asciitilde" unicode="~" 
d="M302 2v1496h196v-1496h-196zM202 2v1496h46v-1496h-46zM2 2v1496h46v-1496h-46z" />
    <glyph glyph-name="uni007F" 
d="M352 2v1496h96v-1496h-96zM152 2v1496h96v-1496h-96zM2 2v1496h96v-1496h-96z" />
    <glyph glyph-name="Acircumflex" unicode="&#xc2;" 
d="M352 2v1496h96v-1496h-96zM152 2v1496h96v-1496h-96zM2 2v1496h96v-1496h-96z" />
    <glyph glyph-name="Atilde" unicode="&#xc3;" 
d="M352 2v1496h46v-1496h-46zM102 2v1496h196v-1496h-196zM2 2v1496h46v-1496h-46z" />
    <glyph glyph-name="Adieresis" unicode="&#xc4;" 
d="M452 2v1496h46v-1496h-46zM102 2v1496h196v-1496h-196zM2 2v1496h46v-1496h-46z" />
    <glyph glyph-name="Aring" unicode="&#xc5;" 
d="M352 2v1496h46v-1496h-46zM252 2v1496h46v-1496h-46zM2 2v1496h196v-1496h-196z" />
    <glyph glyph-name="AE" unicode="&#xc6;" 
d="M452 2v1496h46v-1496h-46zM252 2v1496h46v-1496h-46zM2 2v1496h196v-1496h-196z" />
    <glyph glyph-name="Ccedilla" unicode="&#xc7;" 
d="M302 2v1496h196v-1496h-196zM102 2v1496h146v-1496h-146zM2 2v1496h46v-1496h-46z" />
    <glyph glyph-name="Egrave" unicode="&#xc8;" 
d="M352 2v1496h146v-1496h-146zM102 2v1496h196v-1496h-196zM2 2v1496h46v-1496h-46z" />
    <glyph glyph-name="Eacute" unicode="&#xc9;" 
d="M302 2v1496h196v-1496h-196zM202 2v1496h46v-1496h-46zM2 2v1496h146v-1496h-146z" />
    <glyph glyph-name="Ecircumflex" unicode="&#xca;" 
d="M352 2v1496h146v-1496h-146zM252 2v1496h46v-1496h-46zM2 2v1496h196v-1496h-196z" />
    <glyph glyph-name="Edieresis" unicode="&#xcb;" 
d="M402 2v1496h46v-1496h-46zM152 2v1496h46v-1496h-46zM2 2v1496h96v-1496h-96z" />
    <glyph glyph-name="Igrave" unicode="&#xcc;" 
d="M302 2v1496h46v-1496h-46zM152 2v1496h46v-1496h-46zM2 2v1496h96v-1496h-96z" />
    <glyph glyph-name="Iacute" unicode="&#xcd;" 
d="M302 2v1496h146v-1496h-146zM152 2v1496h46v-1496h-46zM2 2v1496h96v-1496h-96z" />
    <glyph glyph-name="Icircumflex" unicode="&#xce;" horiz-adv-x="1000" 
d="M552 2v1496h96v-1496h-96zM452 2v1496h46v-1496h-46zM252 2v1496h146v-1496h-146zM2 2v1496h96v-1496h-96z" />
  </font>
</defs>
</svg>
